<mxfile host="65bd71144e">
    <diagram id="55KQRKnYYn7DtiYNYvPq" name="Page-1">
        <mxGraphModel dx="1072" dy="563" grid="1" gridSize="10" guides="1" tooltips="1" connect="1" arrows="1" fold="1" page="1" pageScale="1" pageWidth="850" pageHeight="1100" math="0" shadow="0">
            <root>
                <mxCell id="0"/>
                <mxCell id="1" parent="0"/>
                <mxCell id="2" value="" style="rounded=0;whiteSpace=wrap;html=1;" parent="1" vertex="1">
                    <mxGeometry x="90" y="40" width="690" height="1740" as="geometry"/>
                </mxCell>
                <mxCell id="3" value="&lt;h1 style=&quot;box-sizing: border-box; border: 0px solid; --tw-border-spacing-x: 0; --tw-border-spacing-y: 0; --tw-translate-x: 0; --tw-translate-y: 0; --tw-rotate: 0; --tw-skew-x: 0; --tw-skew-y: 0; --tw-scale-x: 1; --tw-scale-y: 1; --tw-pan-x: ; --tw-pan-y: ; --tw-pinch-zoom: ; --tw-scroll-snap-strictness: proximity; --tw-gradient-from-position: ; --tw-gradient-via-position: ; --tw-gradient-to-position: ; --tw-ordinal: ; --tw-slashed-zero: ; --tw-numeric-figure: ; --tw-numeric-spacing: ; --tw-numeric-fraction: ; --tw-ring-inset: ; --tw-ring-offset-width: 0px; --tw-ring-offset-color: #fff; --tw-ring-color: rgba(59,130,246,.5); --tw-ring-offset-shadow: 0 0 #0000; --tw-ring-shadow: 0 0 #0000; --tw-shadow: 0 0 #0000; --tw-shadow-colored: 0 0 #0000; --tw-blur: ; --tw-brightness: ; --tw-contrast: ; --tw-grayscale: ; --tw-hue-rotate: ; --tw-invert: ; --tw-saturate: ; --tw-sepia: ; --tw-drop-shadow: ; --tw-backdrop-blur: ; --tw-backdrop-brightness: ; --tw-backdrop-contrast: ; --tw-backdrop-grayscale: ; --tw-backdrop-hue-rotate: ; --tw-backdrop-invert: ; --tw-backdrop-opacity: ; --tw-backdrop-saturate: ; --tw-backdrop-sepia: ; --tw-contain-size: ; --tw-contain-layout: ; --tw-contain-paint: ; --tw-contain-style: ; font-size: 1.5rem; margin: 0px; font-family: &amp;quot;Nunito Sans&amp;quot;, sans-serif; line-height: 2rem; text-align: start; background-color: rgb(255, 255, 255);&quot; class=&quot;sc-6a4c5dd9-0 dXTcni&quot;&gt;&lt;font color=&quot;#000066&quot;&gt;Plateforme de Cours en Ligne Youdemy&lt;/font&gt;&lt;/h1&gt;" style="text;html=1;strokeColor=none;fillColor=none;align=center;verticalAlign=middle;whiteSpace=wrap;rounded=0;" parent="1" vertex="1">
                    <mxGeometry x="190" y="70" width="470" height="20" as="geometry"/>
                </mxCell>
                <mxCell id="4" value="visiteur" style="shape=umlActor;verticalLabelPosition=bottom;verticalAlign=top;html=1;outlineConnect=0;" parent="1" vertex="1">
                    <mxGeometry x="30" y="240" width="30" height="60" as="geometry"/>
                </mxCell>
                <mxCell id="7" value="acceder au catalogue" style="ellipse;whiteSpace=wrap;html=1;fillColor=#dae8fc;strokeColor=#6c8ebf;" parent="1" vertex="1">
                    <mxGeometry x="130" y="160" width="120" height="80" as="geometry"/>
                </mxCell>
                <mxCell id="8" value="rechercher les cours&amp;nbsp;&lt;span style=&quot;color: rgba(0, 0, 0, 0); font-family: monospace; font-size: 0px; text-align: start;&quot;&gt;%3CmxGraphModel%3E%3Croot%3E%3CmxCell%20id%3D%220%22%2F%3E%3CmxCell%20id%3D%221%22%20parent%3D%220%22%2F%3E%3CmxCell%20id%3D%222%22%20value%3D%22acceder%20au%20catalogue%22%20style%3D%22ellipse%3BwhiteSpace%3Dwrap%3Bhtml%3D1%3B%22%20vertex%3D%221%22%20parent%3D%221%22%3E%3CmxGeometry%20x%3D%22130%22%20y%3D%22160%22%20width%3D%22120%22%20height%3D%2280%22%20as%3D%22geometry%22%2F%3E%3C%2FmxCell%3E%3C%2Froot%3E%3C%2FmxGraphModel%3E&lt;/span&gt;" style="ellipse;whiteSpace=wrap;html=1;fillColor=#dae8fc;strokeColor=#6c8ebf;" parent="1" vertex="1">
                    <mxGeometry x="130" y="250" width="120" height="80" as="geometry"/>
                </mxCell>
                <mxCell id="9" value="s'inscrir" style="ellipse;whiteSpace=wrap;html=1;fillColor=#dae8fc;strokeColor=#6c8ebf;" parent="1" vertex="1">
                    <mxGeometry x="130" y="340" width="120" height="80" as="geometry"/>
                </mxCell>
                <mxCell id="10" value="" style="endArrow=none;html=1;exitX=0.75;exitY=0.1;exitDx=0;exitDy=0;exitPerimeter=0;" parent="1" source="4" target="7" edge="1">
                    <mxGeometry width="50" height="50" relative="1" as="geometry">
                        <mxPoint x="300" y="290" as="sourcePoint"/>
                        <mxPoint x="350" y="240" as="targetPoint"/>
                    </mxGeometry>
                </mxCell>
                <mxCell id="11" value="" style="endArrow=none;html=1;exitX=0.5;exitY=0.5;exitDx=0;exitDy=0;exitPerimeter=0;" parent="1" source="4" target="8" edge="1">
                    <mxGeometry width="50" height="50" relative="1" as="geometry">
                        <mxPoint x="300" y="290" as="sourcePoint"/>
                        <mxPoint x="350" y="240" as="targetPoint"/>
                    </mxGeometry>
                </mxCell>
                <mxCell id="12" value="" style="endArrow=none;html=1;exitX=1;exitY=1;exitDx=0;exitDy=0;exitPerimeter=0;" parent="1" source="4" target="9" edge="1">
                    <mxGeometry width="50" height="50" relative="1" as="geometry">
                        <mxPoint x="300" y="290" as="sourcePoint"/>
                        <mxPoint x="350" y="240" as="targetPoint"/>
                    </mxGeometry>
                </mxCell>
                <mxCell id="17" value="etudiant" style="shape=umlActor;verticalLabelPosition=bottom;verticalAlign=top;html=1;outlineConnect=0;" parent="1" vertex="1">
                    <mxGeometry x="20" y="470" width="30" height="60" as="geometry"/>
                </mxCell>
                <mxCell id="21" value="consulter les détails de cours" style="ellipse;whiteSpace=wrap;html=1;fillColor=#dae8fc;strokeColor=#6c8ebf;" parent="1" vertex="1">
                    <mxGeometry x="140" y="470" width="120" height="80" as="geometry"/>
                </mxCell>
                <mxCell id="22" value="s'inscrir à un cours&amp;nbsp;" style="ellipse;whiteSpace=wrap;html=1;fillColor=#dae8fc;strokeColor=#6c8ebf;" parent="1" vertex="1">
                    <mxGeometry x="140" y="560" width="120" height="80" as="geometry"/>
                </mxCell>
                <mxCell id="23" value="accéder à mes cours" style="ellipse;whiteSpace=wrap;html=1;fillColor=#dae8fc;strokeColor=#6c8ebf;" parent="1" vertex="1">
                    <mxGeometry x="140" y="650" width="120" height="80" as="geometry"/>
                </mxCell>
                <mxCell id="24" value="" style="endArrow=none;html=1;exitX=0.5;exitY=0;exitDx=0;exitDy=0;exitPerimeter=0;entryX=0.046;entryY=0.772;entryDx=0;entryDy=0;entryPerimeter=0;" parent="1" source="17" target="7" edge="1">
                    <mxGeometry width="50" height="50" relative="1" as="geometry">
                        <mxPoint x="430" y="640" as="sourcePoint"/>
                        <mxPoint x="130" y="520" as="targetPoint"/>
                    </mxGeometry>
                </mxCell>
                <mxCell id="25" value="" style="endArrow=none;html=1;exitX=0.5;exitY=0;exitDx=0;exitDy=0;exitPerimeter=0;entryX=0;entryY=0.5;entryDx=0;entryDy=0;" parent="1" source="17" target="8" edge="1">
                    <mxGeometry width="50" height="50" relative="1" as="geometry">
                        <mxPoint x="400" y="600" as="sourcePoint"/>
                        <mxPoint x="130.83999999999992" y="615.04" as="targetPoint"/>
                    </mxGeometry>
                </mxCell>
                <mxCell id="26" value="" style="endArrow=none;html=1;exitX=1;exitY=0.3333333333333333;exitDx=0;exitDy=0;exitPerimeter=0;entryX=0;entryY=0.5;entryDx=0;entryDy=0;" parent="1" source="17" target="21" edge="1">
                    <mxGeometry width="50" height="50" relative="1" as="geometry">
                        <mxPoint x="330" y="710" as="sourcePoint"/>
                        <mxPoint x="380" y="660" as="targetPoint"/>
                    </mxGeometry>
                </mxCell>
                <mxCell id="29" value="" style="endArrow=none;html=1;exitX=0.5;exitY=0.5;exitDx=0;exitDy=0;exitPerimeter=0;entryX=0;entryY=0.5;entryDx=0;entryDy=0;" parent="1" source="17" target="22" edge="1">
                    <mxGeometry width="50" height="50" relative="1" as="geometry">
                        <mxPoint x="370" y="580" as="sourcePoint"/>
                        <mxPoint x="420" y="530" as="targetPoint"/>
                    </mxGeometry>
                </mxCell>
                <mxCell id="30" value="" style="endArrow=none;html=1;exitX=1;exitY=1;exitDx=0;exitDy=0;exitPerimeter=0;entryX=0;entryY=0.5;entryDx=0;entryDy=0;" parent="1" source="17" target="23" edge="1">
                    <mxGeometry width="50" height="50" relative="1" as="geometry">
                        <mxPoint x="370" y="580" as="sourcePoint"/>
                        <mxPoint x="420" y="530" as="targetPoint"/>
                    </mxGeometry>
                </mxCell>
                <mxCell id="31" value="enseignant" style="shape=umlActor;verticalLabelPosition=bottom;verticalAlign=top;html=1;outlineConnect=0;" parent="1" vertex="1">
                    <mxGeometry x="30" y="840" width="30" height="60" as="geometry"/>
                </mxCell>
                <mxCell id="33" value="consulter inscriptions" style="ellipse;whiteSpace=wrap;html=1;fillColor=#dae8fc;strokeColor=#6c8ebf;" parent="1" vertex="1">
                    <mxGeometry x="140" y="780" width="120" height="80" as="geometry"/>
                </mxCell>
                <mxCell id="34" value="gerer des cours" style="ellipse;whiteSpace=wrap;html=1;fillColor=#dae8fc;strokeColor=#6c8ebf;" parent="1" vertex="1">
                    <mxGeometry x="140" y="870" width="120" height="80" as="geometry"/>
                </mxCell>
                <mxCell id="35" value="modifier&amp;nbsp;" style="ellipse;whiteSpace=wrap;html=1;fillColor=#e1d5e7;strokeColor=#9673a6;" parent="1" vertex="1">
                    <mxGeometry x="320" y="840" width="90" height="60" as="geometry"/>
                </mxCell>
                <mxCell id="38" value="supprimer" style="ellipse;whiteSpace=wrap;html=1;fillColor=#e1d5e7;strokeColor=#9673a6;" parent="1" vertex="1">
                    <mxGeometry x="320" y="910" width="90" height="60" as="geometry"/>
                </mxCell>
                <mxCell id="39" value="consulter" style="ellipse;whiteSpace=wrap;html=1;fillColor=#e1d5e7;strokeColor=#9673a6;" parent="1" vertex="1">
                    <mxGeometry x="320" y="980" width="90" height="60" as="geometry"/>
                </mxCell>
                <mxCell id="40" value="accéder aux statistiques" style="ellipse;whiteSpace=wrap;html=1;fillColor=#dae8fc;strokeColor=#6c8ebf;" parent="1" vertex="1">
                    <mxGeometry x="140" y="980" width="120" height="80" as="geometry"/>
                </mxCell>
                <mxCell id="41" value="administrateur" style="shape=umlActor;verticalLabelPosition=bottom;verticalAlign=top;html=1;outlineConnect=0;" parent="1" vertex="1">
                    <mxGeometry x="30" y="1270" width="30" height="60" as="geometry"/>
                </mxCell>
                <mxCell id="42" value="valider les comptes" style="ellipse;whiteSpace=wrap;html=1;fillColor=#dae8fc;strokeColor=#6c8ebf;" parent="1" vertex="1">
                    <mxGeometry x="140" y="1160" width="120" height="80" as="geometry"/>
                </mxCell>
                <mxCell id="43" value="gérer les utilisateurs&amp;nbsp;" style="ellipse;whiteSpace=wrap;html=1;fillColor=#dae8fc;strokeColor=#6c8ebf;" parent="1" vertex="1">
                    <mxGeometry x="140" y="1250" width="120" height="80" as="geometry"/>
                </mxCell>
                <mxCell id="45" value="gérer les catégories" style="ellipse;whiteSpace=wrap;html=1;fillColor=#dae8fc;strokeColor=#6c8ebf;" parent="1" vertex="1">
                    <mxGeometry x="140" y="1390" width="120" height="80" as="geometry"/>
                </mxCell>
                <mxCell id="46" value="activer" style="ellipse;whiteSpace=wrap;html=1;fillColor=#e1d5e7;strokeColor=#9673a6;" parent="1" vertex="1">
                    <mxGeometry x="310" y="1200" width="90" height="60" as="geometry"/>
                </mxCell>
                <mxCell id="47" value="suspendre" style="ellipse;whiteSpace=wrap;html=1;fillColor=#e1d5e7;strokeColor=#9673a6;" parent="1" vertex="1">
                    <mxGeometry x="310" y="1290" width="90" height="60" as="geometry"/>
                </mxCell>
                <mxCell id="48" value="supprimer" style="ellipse;whiteSpace=wrap;html=1;fillColor=#e1d5e7;strokeColor=#9673a6;" parent="1" vertex="1">
                    <mxGeometry x="310" y="1370" width="90" height="60" as="geometry"/>
                </mxCell>
                <mxCell id="49" value="gérer les tags" style="ellipse;whiteSpace=wrap;html=1;fillColor=#dae8fc;strokeColor=#6c8ebf;" parent="1" vertex="1">
                    <mxGeometry x="140" y="1480" width="120" height="80" as="geometry"/>
                </mxCell>
                <mxCell id="51" value="accéder aux statistiques" style="ellipse;whiteSpace=wrap;html=1;fillColor=#dae8fc;strokeColor=#6c8ebf;" parent="1" vertex="1">
                    <mxGeometry x="140" y="1570" width="120" height="80" as="geometry"/>
                </mxCell>
                <mxCell id="53" value="s'authentifier&lt;span style=&quot;color: rgba(0, 0, 0, 0); font-family: monospace; font-size: 0px; text-align: start;&quot;&gt;%3CmxGraphModel%3E%3Croot%3E%3CmxCell%20id%3D%220%22%2F%3E%3CmxCell%20id%3D%221%22%20parent%3D%220%22%2F%3E%3CmxCell%20id%3D%222%22%20value%3D%22gestion%20des%20cours%22%20style%3D%22ellipse%3BwhiteSpace%3Dwrap%3Bhtml%3D1%3B%22%20vertex%3D%221%22%20parent%3D%221%22%3E%3CmxGeometry%20x%3D%22140%22%20y%3D%22870%22%20width%3D%22120%22%20height%3D%2280%22%20as%3D%22geometry%22%2F%3E%3C%2FmxCell%3E%3C%2Froot%3E%3C%2FmxGraphModel%3Eaothetifier&lt;/span&gt;" style="ellipse;whiteSpace=wrap;html=1;fillColor=#f8cecc;strokeColor=#b85450;" parent="1" vertex="1">
                    <mxGeometry x="600" y="870" width="120" height="80" as="geometry"/>
                </mxCell>
                <mxCell id="54" value="" style="endArrow=none;html=1;exitX=0.5;exitY=0;exitDx=0;exitDy=0;exitPerimeter=0;entryX=0;entryY=0.5;entryDx=0;entryDy=0;" parent="1" source="31" target="33" edge="1">
                    <mxGeometry width="50" height="50" relative="1" as="geometry">
                        <mxPoint x="420" y="710" as="sourcePoint"/>
                        <mxPoint x="470" y="660" as="targetPoint"/>
                    </mxGeometry>
                </mxCell>
                <mxCell id="55" value="" style="endArrow=none;html=1;exitX=0.48;exitY=0.347;exitDx=0;exitDy=0;exitPerimeter=0;entryX=0;entryY=0.5;entryDx=0;entryDy=0;" parent="1" source="31" target="34" edge="1">
                    <mxGeometry width="50" height="50" relative="1" as="geometry">
                        <mxPoint x="390" y="830" as="sourcePoint"/>
                        <mxPoint x="440" y="780" as="targetPoint"/>
                    </mxGeometry>
                </mxCell>
                <mxCell id="56" value="" style="endArrow=none;html=1;exitX=0.533;exitY=0.707;exitDx=0;exitDy=0;exitPerimeter=0;entryX=0;entryY=0.5;entryDx=0;entryDy=0;" parent="1" source="31" target="40" edge="1">
                    <mxGeometry width="50" height="50" relative="1" as="geometry">
                        <mxPoint x="390" y="830" as="sourcePoint"/>
                        <mxPoint x="440" y="780" as="targetPoint"/>
                    </mxGeometry>
                </mxCell>
                <mxCell id="57" value="" style="endArrow=none;html=1;exitX=0.5;exitY=0;exitDx=0;exitDy=0;exitPerimeter=0;entryX=-0.008;entryY=0.654;entryDx=0;entryDy=0;entryPerimeter=0;" parent="1" source="41" target="42" edge="1">
                    <mxGeometry width="50" height="50" relative="1" as="geometry">
                        <mxPoint x="540" y="1310" as="sourcePoint"/>
                        <mxPoint x="590" y="1260" as="targetPoint"/>
                    </mxGeometry>
                </mxCell>
                <mxCell id="58" value="" style="endArrow=none;html=1;exitX=0.25;exitY=0.1;exitDx=0;exitDy=0;exitPerimeter=0;entryX=0;entryY=0.5;entryDx=0;entryDy=0;" parent="1" source="41" target="43" edge="1">
                    <mxGeometry width="50" height="50" relative="1" as="geometry">
                        <mxPoint x="540" y="1310" as="sourcePoint"/>
                        <mxPoint x="590" y="1260" as="targetPoint"/>
                    </mxGeometry>
                </mxCell>
                <mxCell id="59" value="" style="endArrow=none;html=1;exitX=0.5;exitY=0.5;exitDx=0;exitDy=0;exitPerimeter=0;entryX=0;entryY=0.5;entryDx=0;entryDy=0;" parent="1" source="41" target="45" edge="1">
                    <mxGeometry width="50" height="50" relative="1" as="geometry">
                        <mxPoint x="540" y="1310" as="sourcePoint"/>
                        <mxPoint x="590" y="1260" as="targetPoint"/>
                    </mxGeometry>
                </mxCell>
                <mxCell id="62" value="" style="endArrow=none;html=1;entryX=0;entryY=0;entryDx=0;entryDy=0;" parent="1" source="41" target="49" edge="1">
                    <mxGeometry width="50" height="50" relative="1" as="geometry">
                        <mxPoint x="520" y="1310" as="sourcePoint"/>
                        <mxPoint x="570" y="1260" as="targetPoint"/>
                    </mxGeometry>
                </mxCell>
                <mxCell id="63" value="" style="endArrow=none;html=1;exitX=0;exitY=1;exitDx=0;exitDy=0;exitPerimeter=0;entryX=0;entryY=0.5;entryDx=0;entryDy=0;" parent="1" source="41" target="51" edge="1">
                    <mxGeometry width="50" height="50" relative="1" as="geometry">
                        <mxPoint x="520" y="1310" as="sourcePoint"/>
                        <mxPoint x="570" y="1260" as="targetPoint"/>
                    </mxGeometry>
                </mxCell>
                <mxCell id="64" value="&amp;lt;&amp;lt;extend&amp;gt;&amp;gt;" style="html=1;verticalAlign=bottom;labelBackgroundColor=none;endArrow=open;endFill=0;dashed=1;entryX=1;entryY=0;entryDx=0;entryDy=0;exitX=0;exitY=0.5;exitDx=0;exitDy=0;" parent="1" source="35" target="34" edge="1">
                    <mxGeometry width="160" relative="1" as="geometry">
                        <mxPoint x="620" y="960" as="sourcePoint"/>
                        <mxPoint x="780" y="960" as="targetPoint"/>
                    </mxGeometry>
                </mxCell>
                <mxCell id="65" value="&amp;lt;&amp;lt;extend&amp;gt;&amp;gt;" style="html=1;verticalAlign=bottom;labelBackgroundColor=none;endArrow=open;endFill=0;dashed=1;exitX=0;exitY=0.5;exitDx=0;exitDy=0;" parent="1" source="38" target="34" edge="1">
                    <mxGeometry width="160" relative="1" as="geometry">
                        <mxPoint x="630" y="980" as="sourcePoint"/>
                        <mxPoint x="790" y="980" as="targetPoint"/>
                    </mxGeometry>
                </mxCell>
                <mxCell id="66" value="&amp;lt;&amp;lt;extend&amp;gt;&amp;gt;" style="html=1;verticalAlign=bottom;labelBackgroundColor=none;endArrow=open;endFill=0;dashed=1;entryX=0.5;entryY=1;entryDx=0;entryDy=0;exitX=0;exitY=0;exitDx=0;exitDy=0;" parent="1" source="39" target="34" edge="1">
                    <mxGeometry width="160" relative="1" as="geometry">
                        <mxPoint x="600" y="750" as="sourcePoint"/>
                        <mxPoint x="760" y="750" as="targetPoint"/>
                    </mxGeometry>
                </mxCell>
                <mxCell id="67" value="&amp;lt;&amp;lt;extend&amp;gt;&amp;gt;" style="html=1;verticalAlign=bottom;labelBackgroundColor=none;endArrow=open;endFill=0;dashed=1;entryX=1;entryY=0;entryDx=0;entryDy=0;" parent="1" target="43" edge="1">
                    <mxGeometry width="160" relative="1" as="geometry">
                        <mxPoint x="310" y="1230" as="sourcePoint"/>
                        <mxPoint x="780" y="1110" as="targetPoint"/>
                    </mxGeometry>
                </mxCell>
                <mxCell id="68" value="&amp;lt;&amp;lt;extend&amp;gt;&amp;gt;" style="html=1;verticalAlign=bottom;labelBackgroundColor=none;endArrow=open;endFill=0;dashed=1;entryX=1;entryY=0.5;entryDx=0;entryDy=0;exitX=0;exitY=0.5;exitDx=0;exitDy=0;" parent="1" source="47" target="43" edge="1">
                    <mxGeometry width="160" relative="1" as="geometry">
                        <mxPoint x="620" y="1110" as="sourcePoint"/>
                        <mxPoint x="780" y="1110" as="targetPoint"/>
                    </mxGeometry>
                </mxCell>
                <mxCell id="69" value="&amp;lt;&amp;lt;extend&amp;gt;&amp;gt;" style="html=1;verticalAlign=bottom;labelBackgroundColor=none;endArrow=open;endFill=0;dashed=1;entryX=1;entryY=1;entryDx=0;entryDy=0;exitX=0;exitY=0.5;exitDx=0;exitDy=0;" parent="1" source="48" target="43" edge="1">
                    <mxGeometry width="160" relative="1" as="geometry">
                        <mxPoint x="620" y="1110" as="sourcePoint"/>
                        <mxPoint x="780" y="1110" as="targetPoint"/>
                    </mxGeometry>
                </mxCell>
                <mxCell id="71" value="&amp;lt;&amp;lt;include&amp;gt;&amp;gt;" style="html=1;verticalAlign=bottom;labelBackgroundColor=none;endArrow=open;endFill=0;dashed=1;exitX=1;exitY=0.5;exitDx=0;exitDy=0;entryX=1.007;entryY=0.681;entryDx=0;entryDy=0;entryPerimeter=0;" parent="1" source="51" target="53" edge="1">
                    <mxGeometry width="160" relative="1" as="geometry">
                        <mxPoint x="1320" y="1190" as="sourcePoint"/>
                        <mxPoint x="1480" y="1190" as="targetPoint"/>
                        <Array as="points">
                            <mxPoint x="730" y="1610"/>
                        </Array>
                    </mxGeometry>
                </mxCell>
                <mxCell id="74" value="&amp;lt;&amp;lt;include&amp;gt;&amp;gt;" style="html=1;verticalAlign=bottom;labelBackgroundColor=none;endArrow=open;endFill=0;dashed=1;exitX=1;exitY=0.5;exitDx=0;exitDy=0;entryX=0.607;entryY=-0.042;entryDx=0;entryDy=0;entryPerimeter=0;" parent="1" source="21" target="53" edge="1">
                    <mxGeometry width="160" relative="1" as="geometry">
                        <mxPoint x="850" y="710" as="sourcePoint"/>
                        <mxPoint x="660" y="870" as="targetPoint"/>
                        <Array as="points">
                            <mxPoint x="673" y="510"/>
                        </Array>
                    </mxGeometry>
                </mxCell>
                <mxCell id="75" value="&amp;lt;&amp;lt;include&amp;gt;&amp;gt;" style="html=1;verticalAlign=bottom;labelBackgroundColor=none;endArrow=open;endFill=0;dashed=1;exitX=1;exitY=0.5;exitDx=0;exitDy=0;entryX=0.5;entryY=0;entryDx=0;entryDy=0;" parent="1" source="22" target="53" edge="1">
                    <mxGeometry width="160" relative="1" as="geometry">
                        <mxPoint x="930" y="710" as="sourcePoint"/>
                        <mxPoint x="670" y="860" as="targetPoint"/>
                        <Array as="points">
                            <mxPoint x="660" y="600"/>
                        </Array>
                    </mxGeometry>
                </mxCell>
                <mxCell id="76" value="&amp;lt;&amp;lt;include&amp;gt;&amp;gt;" style="html=1;verticalAlign=bottom;labelBackgroundColor=none;endArrow=open;endFill=0;dashed=1;exitX=1;exitY=0.5;exitDx=0;exitDy=0;entryX=0.351;entryY=-0.012;entryDx=0;entryDy=0;entryPerimeter=0;" parent="1" source="23" target="53" edge="1">
                    <mxGeometry width="160" relative="1" as="geometry">
                        <mxPoint x="990" y="630" as="sourcePoint"/>
                        <mxPoint x="660" y="870" as="targetPoint"/>
                        <Array as="points">
                            <mxPoint x="640" y="690"/>
                        </Array>
                    </mxGeometry>
                </mxCell>
                <mxCell id="77" value="&amp;lt;&amp;lt;include&amp;gt;&amp;gt;" style="html=1;verticalAlign=bottom;labelBackgroundColor=none;endArrow=open;endFill=0;dashed=1;exitX=1;exitY=0.5;exitDx=0;exitDy=0;entryX=0;entryY=0;entryDx=0;entryDy=0;" parent="1" source="33" target="53" edge="1">
                    <mxGeometry width="160" relative="1" as="geometry">
                        <mxPoint x="1050" y="920" as="sourcePoint"/>
                        <mxPoint x="1210" y="920" as="targetPoint"/>
                        <Array as="points">
                            <mxPoint x="618" y="820"/>
                        </Array>
                    </mxGeometry>
                </mxCell>
                <mxCell id="78" value="&amp;lt;&amp;lt;include&amp;gt;&amp;gt;" style="html=1;verticalAlign=bottom;labelBackgroundColor=none;endArrow=open;endFill=0;dashed=1;exitX=1;exitY=1;exitDx=0;exitDy=0;entryX=0;entryY=1;entryDx=0;entryDy=0;" parent="1" source="40" target="53" edge="1">
                    <mxGeometry width="160" relative="1" as="geometry">
                        <mxPoint x="890" y="920" as="sourcePoint"/>
                        <mxPoint x="1050" y="920" as="targetPoint"/>
                        <Array as="points">
                            <mxPoint x="242" y="1150"/>
                            <mxPoint x="618" y="1150"/>
                        </Array>
                    </mxGeometry>
                </mxCell>
                <mxCell id="79" value="&amp;lt;&amp;lt;include&amp;gt;&amp;gt;" style="html=1;verticalAlign=bottom;labelBackgroundColor=none;endArrow=open;endFill=0;dashed=1;exitX=1;exitY=0;exitDx=0;exitDy=0;entryX=0.28;entryY=0.957;entryDx=0;entryDy=0;entryPerimeter=0;" parent="1" source="42" target="53" edge="1">
                    <mxGeometry width="160" relative="1" as="geometry">
                        <mxPoint x="880" y="980" as="sourcePoint"/>
                        <mxPoint x="660" y="960" as="targetPoint"/>
                        <Array as="points">
                            <mxPoint x="630" y="1170"/>
                        </Array>
                    </mxGeometry>
                </mxCell>
                <mxCell id="80" value="&amp;lt;&amp;lt;include&amp;gt;&amp;gt;" style="html=1;verticalAlign=bottom;labelBackgroundColor=none;endArrow=open;endFill=0;dashed=1;" parent="1" edge="1">
                    <mxGeometry width="160" relative="1" as="geometry">
                        <mxPoint x="260" y="1280" as="sourcePoint"/>
                        <mxPoint x="650" y="950" as="targetPoint"/>
                        <Array as="points">
                            <mxPoint x="650" y="1270"/>
                        </Array>
                    </mxGeometry>
                </mxCell>
                <mxCell id="81" value="&amp;lt;&amp;lt;include&amp;gt;&amp;gt;" style="html=1;verticalAlign=bottom;labelBackgroundColor=none;endArrow=open;endFill=0;dashed=1;entryX=0.597;entryY=0.942;entryDx=0;entryDy=0;entryPerimeter=0;" parent="1" target="53" edge="1">
                    <mxGeometry width="160" relative="1" as="geometry">
                        <mxPoint x="250" y="1450" as="sourcePoint"/>
                        <mxPoint x="660" y="950" as="targetPoint"/>
                        <Array as="points">
                            <mxPoint x="670" y="1440"/>
                        </Array>
                    </mxGeometry>
                </mxCell>
                <mxCell id="82" value="&amp;lt;&amp;lt;include&amp;gt;&amp;gt;" style="html=1;verticalAlign=bottom;labelBackgroundColor=none;endArrow=open;endFill=0;dashed=1;exitX=1;exitY=0.5;exitDx=0;exitDy=0;entryX=1;entryY=1;entryDx=0;entryDy=0;" parent="1" source="49" target="53" edge="1">
                    <mxGeometry width="160" relative="1" as="geometry">
                        <mxPoint x="680" y="1330" as="sourcePoint"/>
                        <mxPoint x="660" y="960" as="targetPoint"/>
                        <Array as="points">
                            <mxPoint x="702" y="1520"/>
                        </Array>
                    </mxGeometry>
                </mxCell>
                <mxCell id="83" value="ajouter" style="ellipse;whiteSpace=wrap;html=1;fillColor=#e1d5e7;strokeColor=#9673a6;" parent="1" vertex="1">
                    <mxGeometry x="320" y="1050" width="90" height="60" as="geometry"/>
                </mxCell>
                <mxCell id="84" value="&amp;lt;&amp;lt;extend&amp;gt;&amp;gt;" style="html=1;verticalAlign=bottom;labelBackgroundColor=none;endArrow=open;endFill=0;dashed=1;entryX=0.5;entryY=1;entryDx=0;entryDy=0;exitX=0;exitY=0;exitDx=0;exitDy=0;" parent="1" source="83" target="34" edge="1">
                    <mxGeometry width="160" relative="1" as="geometry">
                        <mxPoint x="343.53970656342597" y="998.5497999296085" as="sourcePoint"/>
                        <mxPoint x="210" y="960" as="targetPoint"/>
                        <Array as="points">
                            <mxPoint x="280" y="1000"/>
                        </Array>
                    </mxGeometry>
                </mxCell>
                <mxCell id="85" value="gérer les cours" style="ellipse;whiteSpace=wrap;html=1;fillColor=#dae8fc;strokeColor=#6c8ebf;" parent="1" vertex="1">
                    <mxGeometry x="140" y="1670" width="120" height="80" as="geometry"/>
                </mxCell>
                <mxCell id="86" value="" style="endArrow=none;html=1;entryX=0;entryY=0.5;entryDx=0;entryDy=0;exitX=0;exitY=1;exitDx=0;exitDy=0;exitPerimeter=0;" parent="1" source="41" target="85" edge="1">
                    <mxGeometry width="50" height="50" relative="1" as="geometry">
                        <mxPoint x="80" y="1370" as="sourcePoint"/>
                        <mxPoint x="130" y="1320" as="targetPoint"/>
                    </mxGeometry>
                </mxCell>
                <mxCell id="87" value="&amp;lt;&amp;lt;include&amp;gt;&amp;gt;" style="html=1;verticalAlign=bottom;labelBackgroundColor=none;endArrow=open;endFill=0;dashed=1;exitX=1;exitY=0.5;exitDx=0;exitDy=0;" parent="1" source="85" edge="1">
                    <mxGeometry width="160" relative="1" as="geometry">
                        <mxPoint x="370" y="1520" as="sourcePoint"/>
                        <mxPoint x="730" y="910" as="targetPoint"/>
                        <Array as="points">
                            <mxPoint x="750" y="1710"/>
                        </Array>
                    </mxGeometry>
                </mxCell>
            </root>
        </mxGraphModel>
    </diagram>
</mxfile>